# xmcd
#
# Track frame offsets:
#	150
#	6311
#	21553
#	29442
#	60157
#	77428
#	95148
#	112717
#	127825
#	144285
#
# Disc length: 2129 seconds
# Revision: 0
# Processed by: cddbd v1.5.2PL0 Copyright (c) Steve Scherf et al.
# Submitted via: dBpowerAMP V12.0
#
DISCID=71084f0a
DTITLE=Various Artist - Sun Midnight Sun
DYEAR=2012
DGENRE=Country
TTITLE0=Sara Watkins - The Foothills
TTITLE1=Sara Watkins - You and Me
TTITLE2=Sara Watkins with Fiona Apple - You're the One I Love
TTITLE3=Sara Watkins - When It Pleases You
TTITLE4=Sara Watkins - Be There
TTITLE5=Sara Watkins - I'm a Memory
TTITLE6=Sara Watkins - Impossible
TTITLE7=Sara Watkins - The Accord
TTITLE8=Sara Watkins - Lock and Key
TTITLE9=Sara Watkins - Take Up Your Spade
EXTD=
EXTT0=
EXTT1=
EXTT2=
EXTT3=
EXTT4=
EXTT5=
EXTT6=
EXTT7=
EXTT8=
EXTT9=
PLAYORDER=
